<?xml version="1.0" encoding="UTF-8"?>
<!DOCTYPE svg PUBLIC "-//W3C//DTD SVG 1.1//EN" "http://www.w3.org/Graphics/SVG/1.1/DTD/svg11.dtd">
<svg xmlns="http://www.w3.org/2000/svg" version="1.1" width="1280px" height="1280px" style="shape-rendering:geometricPrecision; text-rendering:geometricPrecision; image-rendering:optimizeQuality; fill-rule:evenodd; clip-rule:evenodd" xmlns:xlink="http://www.w3.org/1999/xlink">
<g><path style="opacity:1" fill="#182c47" d="M -0.5,-0.5 C 426.167,-0.5 852.833,-0.5 1279.5,-0.5C 1279.5,426.167 1279.5,852.833 1279.5,1279.5C 852.833,1279.5 426.167,1279.5 -0.5,1279.5C -0.5,852.833 -0.5,426.167 -0.5,-0.5 Z"/></g>
<g><path style="opacity:1" fill="#fdfefe" d="M 228.5,576.5 C 228.5,585.5 228.5,594.5 228.5,603.5C 246.5,603.5 264.5,603.5 282.5,603.5C 282.5,609.5 282.5,615.5 282.5,621.5C 264.5,621.5 246.5,621.5 228.5,621.5C 228.5,639.5 228.5,657.5 228.5,675.5C 222.5,675.5 216.5,675.5 210.5,675.5C 210.5,642.5 210.5,609.5 210.5,576.5C 216.5,576.5 222.5,576.5 228.5,576.5 Z"/></g>
<g><path style="opacity:1" fill="#fdfdfe" d="M 573.5,576.5 C 573.5,609.833 573.5,643.167 573.5,676.5C 549.167,676.5 524.833,676.5 500.5,676.5C 500.5,652.167 500.5,627.833 500.5,603.5C 516.5,603.5 532.5,603.5 548.5,603.5C 548.5,609.5 548.5,615.5 548.5,621.5C 538.5,621.5 528.5,621.5 518.5,621.5C 518.172,633.345 518.505,645.012 519.5,656.5C 530.988,657.495 542.655,657.828 554.5,657.5C 555.498,630.672 555.831,603.672 555.5,576.5C 561.5,576.5 567.5,576.5 573.5,576.5 Z"/></g>
<g><path style="opacity:1" fill="#fcfdfd" d="M 936.5,602.5 C 954.5,602.5 972.5,602.5 990.5,602.5C 990.5,608.833 990.5,615.167 990.5,621.5C 972.326,621.17 954.326,621.503 936.5,622.5C 935.503,639.992 935.17,657.659 935.5,675.5C 929.5,675.5 923.5,675.5 917.5,675.5C 917.5,642.5 917.5,609.5 917.5,576.5C 923.5,576.5 929.5,576.5 935.5,576.5C 935.174,585.349 935.507,594.016 936.5,602.5 Z"/></g>
<g><path style="opacity:1" fill="#d5dce6" d="M 228.5,575.5 C 228.5,575.833 228.5,576.167 228.5,576.5C 222.5,576.5 216.5,576.5 210.5,576.5C 210.5,609.5 210.5,642.5 210.5,675.5C 216.5,675.5 222.5,675.5 228.5,675.5C 228.5,675.833 228.5,676.167 228.5,676.5C 222.167,676.5 215.833,676.5 209.5,676.5C 209.5,642.833 209.5,609.167 209.5,575.5C 215.833,575.5 222.167,575.5 228.5,575.5 Z"/></g>
<g><path style="opacity:1" fill="#a4aeba" d="M 936.5,576.5 C 936.5,585.167 936.5,593.833 936.5,602.5C 935.507,594.016 935.174,585.349 935.5,576.5C 929.5,576.5 923.5,576.5 917.5,576.5C 917.5,609.5 917.5,642.5 917.5,675.5C 917.5,675.833 917.5,676.167 917.5,676.5C 917.167,676.5 916.833,676.5 916.5,676.5C 916.5,643.167 916.5,609.833 916.5,576.5C 923.167,575.167 929.833,575.167 936.5,576.5 Z"/></g>
<g><path style="opacity:1" fill="#334053" d="M 936.5,576.5 C 937.493,584.65 937.826,592.983 937.5,601.5C 955.341,601.17 973.008,601.503 990.5,602.5C 972.5,602.5 954.5,602.5 936.5,602.5C 936.5,593.833 936.5,585.167 936.5,576.5 Z"/></g>
<g><path style="opacity:1" fill="#38412a" d="M 1147.5,602.5 C 1122.99,602.169 1098.66,602.502 1074.5,603.5C 1074.5,609.5 1074.5,615.5 1074.5,621.5C 1074.17,621.5 1073.83,621.5 1073.5,621.5C 1072.19,615.296 1072.19,608.962 1073.5,602.5C 1098.33,601.171 1123,601.171 1147.5,602.5 Z"/></g>
<g><path style="opacity:1" fill="#97a0ad" d="M 228.5,575.5 C 229.493,584.318 229.827,593.318 229.5,602.5C 247.5,602.5 265.5,602.5 283.5,602.5C 283.5,609.167 283.5,615.833 283.5,622.5C 265.5,622.5 247.5,622.5 229.5,622.5C 229.83,640.674 229.497,658.674 228.5,676.5C 228.5,676.167 228.5,675.833 228.5,675.5C 228.5,657.5 228.5,639.5 228.5,621.5C 246.5,621.5 264.5,621.5 282.5,621.5C 282.5,615.5 282.5,609.5 282.5,603.5C 264.5,603.5 246.5,603.5 228.5,603.5C 228.5,594.5 228.5,585.5 228.5,576.5C 228.5,576.167 228.5,575.833 228.5,575.5 Z"/></g>
<g><path style="opacity:1" fill="#a5aebb" d="M 416.5,603.5 C 416.167,603.5 415.833,603.5 415.5,603.5C 373.167,603.5 330.833,603.5 288.5,603.5C 288.5,609.5 288.5,615.5 288.5,621.5C 306.674,621.17 324.674,621.503 342.5,622.5C 324.167,622.5 305.833,622.5 287.5,622.5C 287.5,616.167 287.5,609.833 287.5,603.5C 330.5,602.167 373.5,602.167 416.5,603.5 Z"/></g>
<g><path style="opacity:1" fill="#a9b1be" d="M 519.5,656.5 C 518.505,645.012 518.172,633.345 518.5,621.5C 528.5,621.5 538.5,621.5 548.5,621.5C 548.5,615.5 548.5,609.5 548.5,603.5C 532.5,603.5 516.5,603.5 500.5,603.5C 500.5,627.833 500.5,652.167 500.5,676.5C 499.502,652.006 499.169,627.339 499.5,602.5C 516.167,602.5 532.833,602.5 549.5,602.5C 549.5,609.167 549.5,615.833 549.5,622.5C 539.5,622.5 529.5,622.5 519.5,622.5C 519.5,633.833 519.5,645.167 519.5,656.5 Z"/></g>
<g><path style="opacity:1" fill="#969fac" d="M 838.5,602.5 C 863.167,602.5 887.833,602.5 912.5,602.5C 912.5,618.167 912.5,633.833 912.5,649.5C 895.833,649.5 879.167,649.5 862.5,649.5C 862.5,642.833 862.5,636.167 862.5,629.5C 872.5,629.5 882.5,629.5 892.5,629.5C 883.014,630.494 873.348,630.827 863.5,630.5C 863.5,636.5 863.5,642.5 863.5,648.5C 879.5,648.5 895.5,648.5 911.5,648.5C 911.5,633.5 911.5,618.5 911.5,603.5C 887.167,603.5 862.833,603.5 838.5,603.5C 838.5,627.5 838.5,651.5 838.5,675.5C 838.5,675.833 838.5,676.167 838.5,676.5C 837.167,651.833 837.167,627.167 838.5,602.5 Z"/></g>
<g><path style="opacity:1" fill="#a8b1be" d="M 1069.5,603.5 C 1069.17,603.5 1068.83,603.5 1068.5,603.5C 1044.5,603.5 1020.5,603.5 996.5,603.5C 996.5,609.5 996.5,615.5 996.5,621.5C 1014.67,621.17 1032.67,621.503 1050.5,622.5C 1050.17,622.5 1049.83,622.5 1049.5,622.5C 1031.5,622.5 1013.5,622.5 995.5,622.5C 995.5,615.833 995.5,609.167 995.5,602.5C 1020.34,602.169 1045.01,602.502 1069.5,603.5 Z"/></g>
<g><path style="opacity:1" fill="#d5d364" d="M 149.5,603.5 C 149.833,603.5 150.167,603.5 150.5,603.5C 150.5,609.5 150.5,615.5 150.5,621.5C 150.167,621.5 149.833,621.5 149.5,621.5C 143.5,621.5 137.5,621.5 131.5,621.5C 131.5,615.5 131.5,609.5 131.5,603.5C 137.5,603.5 143.5,603.5 149.5,603.5 Z"/></g>
<g><path style="opacity:1" fill="#fcfdfc" d="M 150.5,603.5 C 168.5,603.5 186.5,603.5 204.5,603.5C 204.5,621.167 204.5,638.833 204.5,656.5C 198.167,656.5 191.833,656.5 185.5,656.5C 185.5,644.833 185.5,633.167 185.5,621.5C 173.833,621.5 162.167,621.5 150.5,621.5C 150.5,615.5 150.5,609.5 150.5,603.5 Z"/></g>
<g><path style="opacity:1" fill="#fefefe" d="M 415.5,603.5 C 415.5,627.5 415.5,651.5 415.5,675.5C 409.5,675.5 403.5,675.5 397.5,675.5C 397.5,657.5 397.5,639.5 397.5,621.5C 385.655,621.172 373.988,621.505 362.5,622.5C 361.503,639.992 361.17,657.659 361.5,675.5C 355.5,675.5 349.5,675.5 343.5,675.5C 343.83,657.659 343.497,639.992 342.5,622.5C 324.674,621.503 306.674,621.17 288.5,621.5C 288.5,615.5 288.5,609.5 288.5,603.5C 330.833,603.5 373.167,603.5 415.5,603.5 Z"/></g>
<g><path style="opacity:1" fill="#fefefe" d="M 421.5,603.5 C 445.833,603.5 470.167,603.5 494.5,603.5C 494.5,627.5 494.5,651.5 494.5,675.5C 470.5,675.5 446.5,675.5 422.5,675.5C 422.5,660.5 422.5,645.5 422.5,630.5C 438.5,630.5 454.5,630.5 470.5,630.5C 470.5,636.5 470.5,642.5 470.5,648.5C 460.5,648.5 450.5,648.5 440.5,648.5C 440.5,651.5 440.5,654.5 440.5,657.5C 452.5,657.5 464.5,657.5 476.5,657.5C 476.828,645.655 476.495,633.988 475.5,622.5C 457.674,621.503 439.674,621.17 421.5,621.5C 421.5,615.5 421.5,609.5 421.5,603.5 Z"/></g>
<g><path style="opacity:1" fill="#fdfefe" d="M 578.5,603.5 C 602.833,603.5 627.167,603.5 651.5,603.5C 651.5,627.5 651.5,651.5 651.5,675.5C 627.5,675.5 603.5,675.5 579.5,675.5C 579.5,660.5 579.5,645.5 579.5,630.5C 595.5,630.5 611.5,630.5 627.5,630.5C 627.5,636.5 627.5,642.5 627.5,648.5C 617.5,648.5 607.5,648.5 597.5,648.5C 597.19,651.713 597.523,654.713 598.5,657.5C 610.167,657.5 621.833,657.5 633.5,657.5C 633.5,645.5 633.5,633.5 633.5,621.5C 615.167,621.5 596.833,621.5 578.5,621.5C 578.5,615.5 578.5,609.5 578.5,603.5 Z"/></g>
<g><path style="opacity:1" fill="#fbfcfc" d="M 833.5,603.5 C 833.5,609.833 833.5,616.167 833.5,622.5C 815.5,622.5 797.5,622.5 779.5,622.5C 778.503,640.326 778.17,658.326 778.5,676.5C 772.5,676.5 766.5,676.5 760.5,676.5C 760.5,652.167 760.5,627.833 760.5,603.5C 784.833,603.5 809.167,603.5 833.5,603.5 Z"/></g>
<g><path style="opacity:1" fill="#fdfefe" d="M 892.5,629.5 C 892.5,627.167 892.5,624.833 892.5,622.5C 881.012,621.505 869.345,621.172 857.5,621.5C 857.5,633.5 857.5,645.5 857.5,657.5C 875.5,657.5 893.5,657.5 911.5,657.5C 911.5,663.5 911.5,669.5 911.5,675.5C 887.167,675.5 862.833,675.5 838.5,675.5C 838.5,651.5 838.5,627.5 838.5,603.5C 862.833,603.5 887.167,603.5 911.5,603.5C 911.5,618.5 911.5,633.5 911.5,648.5C 895.5,648.5 879.5,648.5 863.5,648.5C 863.5,642.5 863.5,636.5 863.5,630.5C 873.348,630.827 883.014,630.494 892.5,629.5 Z"/></g>
<g><path style="opacity:1" fill="#fefefe" d="M 1068.5,603.5 C 1068.5,627.5 1068.5,651.5 1068.5,675.5C 1044.5,675.5 1020.5,675.5 996.5,675.5C 996.5,660.5 996.5,645.5 996.5,630.5C 1012.5,630.5 1028.5,630.5 1044.5,630.5C 1044.5,636.5 1044.5,642.5 1044.5,648.5C 1034.5,648.5 1024.5,648.5 1014.5,648.5C 1014.19,651.713 1014.52,654.713 1015.5,657.5C 1027.17,657.5 1038.83,657.5 1050.5,657.5C 1050.5,645.833 1050.5,634.167 1050.5,622.5C 1032.67,621.503 1014.67,621.17 996.5,621.5C 996.5,615.5 996.5,609.5 996.5,603.5C 1020.5,603.5 1044.5,603.5 1068.5,603.5 Z"/></g>
<g><path style="opacity:1" fill="#dad13a" d="M 132.5,604.5 C 137.833,604.5 143.167,604.5 148.5,604.5C 148.5,609.833 148.5,615.167 148.5,620.5C 143.167,620.5 137.833,620.5 132.5,620.5C 132.5,615.167 132.5,609.833 132.5,604.5 Z"/></g>
<g><path style="opacity:1" fill="#84894f" d="M 1074.5,603.5 C 1098.66,602.502 1122.99,602.169 1147.5,602.5C 1148.17,602.5 1148.5,602.833 1148.5,603.5C 1148.83,628.006 1148.5,652.339 1147.5,676.5C 1147.5,676.167 1147.5,675.833 1147.5,675.5C 1147.5,651.5 1147.5,627.5 1147.5,603.5C 1123.17,603.5 1098.83,603.5 1074.5,603.5 Z"/></g>
<g><path style="opacity:1" fill="#7f8996" d="M 149.5,603.5 C 149.5,603.167 149.5,602.833 149.5,602.5C 168.167,602.5 186.833,602.5 205.5,602.5C 205.5,620.833 205.5,639.167 205.5,657.5C 204.833,657.5 204.5,657.167 204.5,656.5C 204.5,638.833 204.5,621.167 204.5,603.5C 186.5,603.5 168.5,603.5 150.5,603.5C 150.167,603.5 149.833,603.5 149.5,603.5 Z"/></g>
<g><path style="opacity:1" fill="#b0b7c3" d="M 421.5,603.5 C 421.5,603.167 421.5,602.833 421.5,602.5C 446.167,602.5 470.833,602.5 495.5,602.5C 495.831,627.339 495.498,652.006 494.5,676.5C 494.5,676.167 494.5,675.833 494.5,675.5C 494.5,651.5 494.5,627.5 494.5,603.5C 470.167,603.5 445.833,603.5 421.5,603.5 Z"/></g>
<g><path style="opacity:1" fill="#d0cf59" d="M 1074.5,603.5 C 1098.83,603.5 1123.17,603.5 1147.5,603.5C 1147.5,627.5 1147.5,651.5 1147.5,675.5C 1141.5,675.5 1135.5,675.5 1129.5,675.5C 1129.83,657.659 1129.5,639.992 1128.5,622.5C 1128.5,622.167 1128.5,621.833 1128.5,621.5C 1110.5,621.5 1092.5,621.5 1074.5,621.5C 1074.5,615.5 1074.5,609.5 1074.5,603.5 Z"/></g>
<g><path style="opacity:1" fill="#dad13a" d="M 1128.5,621.5 C 1111.34,620.503 1094.01,620.17 1076.5,620.5C 1076.5,615.167 1076.5,609.833 1076.5,604.5C 1099.83,604.5 1123.17,604.5 1146.5,604.5C 1146.5,627.833 1146.5,651.167 1146.5,674.5C 1141.17,674.5 1135.83,674.5 1130.5,674.5C 1131.15,656.468 1130.49,638.802 1128.5,621.5 Z"/></g>
<g><path style="opacity:1" fill="#283327" d="M 1148.5,603.5 C 1149.66,627.997 1149.83,652.663 1149,677.5C 1142.58,678.643 1136.08,678.81 1129.5,678C 1128.94,677.617 1128.61,677.117 1128.5,676.5C 1134.83,676.5 1141.17,676.5 1147.5,676.5C 1148.5,652.339 1148.83,628.006 1148.5,603.5 Z"/></g>
<g><path style="opacity:1" fill="#9b9f62" d="M 149.5,602.5 C 149.5,602.833 149.5,603.167 149.5,603.5C 143.5,603.5 137.5,603.5 131.5,603.5C 131.5,609.5 131.5,615.5 131.5,621.5C 137.5,621.5 143.5,621.5 149.5,621.5C 149.5,621.833 149.5,622.167 149.5,622.5C 143.167,622.5 136.833,622.5 130.5,622.5C 130.5,615.833 130.5,609.167 130.5,602.5C 136.833,602.5 143.167,602.5 149.5,602.5 Z"/></g>
<g><path style="opacity:1" fill="#d3d9e4" d="M 554.5,575.5 C 561.022,575.177 567.355,575.51 573.5,576.5C 567.5,576.5 561.5,576.5 555.5,576.5C 555.831,603.672 555.498,630.672 554.5,657.5C 554.5,630.167 554.5,602.833 554.5,575.5 Z"/></g>
<g><path style="opacity:1" fill="#929cab" d="M 421.5,602.5 C 421.5,602.833 421.5,603.167 421.5,603.5C 421.5,609.5 421.5,615.5 421.5,621.5C 439.674,621.17 457.674,621.503 475.5,622.5C 457.167,622.5 438.833,622.5 420.5,622.5C 420.176,615.646 420.509,608.979 421.5,602.5 Z"/></g>
<g><path style="opacity:1" fill="#666f81" d="M 554.5,575.5 C 554.5,602.833 554.5,630.167 554.5,657.5C 542.655,657.828 530.988,657.495 519.5,656.5C 530.833,656.5 542.167,656.5 553.5,656.5C 553.169,629.328 553.502,602.328 554.5,575.5 Z"/></g>
<g><path style="opacity:1" fill="#98a1b0" d="M 680.5,602.5 C 705.5,602.5 730.5,602.5 755.5,602.5C 755.5,609.167 755.5,615.833 755.5,622.5C 730.5,622.5 705.5,622.5 680.5,622.5C 680.5,615.833 680.5,609.167 680.5,602.5 Z"/></g>
<g><path style="opacity:1" fill="#fdfefe" d="M 681.5,603.5 C 705.833,603.5 730.167,603.5 754.5,603.5C 754.5,609.5 754.5,615.5 754.5,621.5C 730.167,621.5 705.833,621.5 681.5,621.5C 681.5,615.5 681.5,609.5 681.5,603.5 Z"/></g>
<g><path style="opacity:1" fill="#8d96a5" d="M 990.5,602.5 C 991.491,608.979 991.824,615.646 991.5,622.5C 973.167,622.5 954.833,622.5 936.5,622.5C 954.326,621.503 972.326,621.17 990.5,621.5C 990.5,615.167 990.5,608.833 990.5,602.5 Z"/></g>
<g><path style="opacity:1" fill="#c7cfda" d="M 342.5,622.5 C 343.497,639.992 343.83,657.659 343.5,675.5C 349.5,675.5 355.5,675.5 361.5,675.5C 361.17,657.659 361.503,639.992 362.5,622.5C 362.5,640.5 362.5,658.5 362.5,676.5C 355.833,676.5 349.167,676.5 342.5,676.5C 342.5,658.5 342.5,640.5 342.5,622.5 Z"/></g>
<g><path style="opacity:1" fill="#b4bcc8" d="M 833.5,603.5 C 809.167,603.5 784.833,603.5 760.5,603.5C 760.5,627.833 760.5,652.167 760.5,676.5C 760.167,676.5 759.833,676.5 759.5,676.5C 759.5,651.833 759.5,627.167 759.5,602.5C 784.339,602.169 809.006,602.502 833.5,603.5 Z"/></g>
<g><path style="opacity:1" fill="#bbc5d1" d="M 936.5,622.5 C 936.5,640.5 936.5,658.5 936.5,676.5C 930.167,676.5 923.833,676.5 917.5,676.5C 917.5,676.167 917.5,675.833 917.5,675.5C 923.5,675.5 929.5,675.5 935.5,675.5C 935.17,657.659 935.503,639.992 936.5,622.5 Z"/></g>
<g><path style="opacity:1" fill="#7f8a9a" d="M 362.5,622.5 C 373.988,621.505 385.655,621.172 397.5,621.5C 397.5,639.5 397.5,657.5 397.5,675.5C 397.5,675.833 397.5,676.167 397.5,676.5C 396.503,658.674 396.17,640.674 396.5,622.5C 385.167,622.5 373.833,622.5 362.5,622.5 Z"/></g>
<g><path style="opacity:1" fill="#3f4a2c" d="M 1073.5,621.5 C 1073.83,621.5 1074.17,621.5 1074.5,621.5C 1092.5,621.5 1110.5,621.5 1128.5,621.5C 1128.5,621.833 1128.5,622.167 1128.5,622.5C 1128.5,640.5 1128.5,658.5 1128.5,676.5C 1127.5,659.008 1127.17,641.341 1127.5,623.5C 1109.14,624.153 1091.14,623.487 1073.5,621.5 Z"/></g>
<g><path style="opacity:1" fill="#9da259" d="M 1128.5,622.5 C 1129.5,639.992 1129.83,657.659 1129.5,675.5C 1135.5,675.5 1141.5,675.5 1147.5,675.5C 1147.5,675.833 1147.5,676.167 1147.5,676.5C 1141.17,676.5 1134.83,676.5 1128.5,676.5C 1128.5,658.5 1128.5,640.5 1128.5,622.5 Z"/></g>
<g><path style="opacity:1" fill="#fefefe" d="M 700.5,657.5 C 718.5,657.5 736.5,657.5 754.5,657.5C 754.5,663.5 754.5,669.5 754.5,675.5C 736.326,675.17 718.326,675.503 700.5,676.5C 699.507,684.984 699.174,693.651 699.5,702.5C 693.833,702.5 688.167,702.5 682.5,702.5C 682.5,677.5 682.5,652.5 682.5,627.5C 688.167,627.5 693.833,627.5 699.5,627.5C 699.173,637.681 699.506,647.681 700.5,657.5 Z"/></g>
<g><path style="opacity:1" fill="#fefefe" d="M 990.5,672.5 C 990.5,673.5 990.5,674.5 990.5,675.5C 984.5,675.5 978.5,675.5 972.5,675.5C 972.5,659.5 972.5,643.5 972.5,627.5C 978.167,627.5 983.833,627.5 989.5,627.5C 989.171,642.676 989.504,657.676 990.5,672.5 Z"/></g>
<g><path style="opacity:1" fill="#9ca5b2" d="M 578.5,630.5 C 594.992,629.503 611.658,629.17 628.5,629.5C 628.5,636.167 628.5,642.833 628.5,649.5C 618.5,649.5 608.5,649.5 598.5,649.5C 598.5,651.833 598.5,654.167 598.5,656.5C 598.5,656.833 598.5,657.167 598.5,657.5C 597.523,654.713 597.19,651.713 597.5,648.5C 607.5,648.5 617.5,648.5 627.5,648.5C 627.5,642.5 627.5,636.5 627.5,630.5C 611.5,630.5 595.5,630.5 579.5,630.5C 579.167,630.5 578.833,630.5 578.5,630.5 Z"/></g>
<g><path style="opacity:1" fill="#fefefd" d="M 150.5,630.5 C 160.167,630.5 169.833,630.5 179.5,630.5C 179.5,636.5 179.5,642.5 179.5,648.5C 169.833,648.5 160.167,648.5 150.5,648.5C 150.5,642.5 150.5,636.5 150.5,630.5 Z"/></g>
<g><path style="opacity:1" fill="#ccd4df" d="M 415.5,603.5 C 415.833,603.5 416.167,603.5 416.5,603.5C 416.5,627.833 416.5,652.167 416.5,676.5C 410.167,676.5 403.833,676.5 397.5,676.5C 397.5,676.167 397.5,675.833 397.5,675.5C 403.5,675.5 409.5,675.5 415.5,675.5C 415.5,651.5 415.5,627.5 415.5,603.5 Z"/></g>
<g><path style="opacity:1" fill="#737b7d" d="M 149.5,622.5 C 149.5,622.167 149.5,621.833 149.5,621.5C 149.833,621.5 150.167,621.5 150.5,621.5C 162.167,621.5 173.833,621.5 185.5,621.5C 185.5,633.167 185.5,644.833 185.5,656.5C 185.5,656.833 185.5,657.167 185.5,657.5C 173.655,657.828 161.988,657.495 150.5,656.5C 162.216,657.144 173.549,656.478 184.5,654.5C 184.5,643.833 184.5,633.167 184.5,622.5C 172.833,622.5 161.167,622.5 149.5,622.5 Z"/></g>
<g><path style="opacity:1" fill="#e1e9f2" d="M 990.5,672.5 C 989.504,657.676 989.171,642.676 989.5,627.5C 983.833,627.5 978.167,627.5 972.5,627.5C 972.5,643.5 972.5,659.5 972.5,675.5C 978.5,675.5 984.5,675.5 990.5,675.5C 984.355,676.49 978.022,676.823 971.5,676.5C 971.5,659.833 971.5,643.167 971.5,626.5C 977.833,626.5 984.167,626.5 990.5,626.5C 990.5,641.833 990.5,657.167 990.5,672.5 Z"/></g>
<g><path style="opacity:1" fill="#dbe2ec" d="M 1074.5,626.5 C 1080.83,626.5 1087.17,626.5 1093.5,626.5C 1093.5,643.167 1093.5,659.833 1093.5,676.5C 1087.17,676.5 1080.83,676.5 1074.5,676.5C 1074.5,659.833 1074.5,643.167 1074.5,626.5 Z"/></g>
<g><path style="opacity:1" fill="#fefefe" d="M 1075.5,627.5 C 1081.17,627.5 1086.83,627.5 1092.5,627.5C 1092.5,643.5 1092.5,659.5 1092.5,675.5C 1086.83,675.5 1081.17,675.5 1075.5,675.5C 1075.5,659.5 1075.5,643.5 1075.5,627.5 Z"/></g>
<g><path style="opacity:1" fill="#858f9e" d="M 578.5,621.5 C 596.833,621.5 615.167,621.5 633.5,621.5C 633.5,633.5 633.5,645.5 633.5,657.5C 621.833,657.5 610.167,657.5 598.5,657.5C 598.5,657.167 598.5,656.833 598.5,656.5C 609.833,656.5 621.167,656.5 632.5,656.5C 632.5,645.167 632.5,633.833 632.5,622.5C 614.326,622.83 596.326,622.497 578.5,621.5 Z"/></g>
<g><path style="opacity:1" fill="#4d5a6b" d="M 676.5,676.5 C 676.5,642.833 676.5,609.167 676.5,575.5C 669.978,575.177 663.645,575.51 657.5,576.5C 657.5,609.5 657.5,642.5 657.5,675.5C 657.5,675.833 657.5,676.167 657.5,676.5C 656.502,642.671 656.168,608.671 656.5,574.5C 663.5,574.5 670.5,574.5 677.5,574.5C 677.832,608.671 677.498,642.671 676.5,676.5 Z"/></g>
<g><path style="opacity:1" fill="#ced6df" d="M 657.5,576.5 C 663.645,575.51 669.978,575.177 676.5,575.5C 676.5,609.167 676.5,642.833 676.5,676.5C 670.167,676.5 663.833,676.5 657.5,676.5C 657.5,676.167 657.5,675.833 657.5,675.5C 663.5,675.5 669.5,675.5 675.5,675.5C 675.5,642.5 675.5,609.5 675.5,576.5C 669.5,576.5 663.5,576.5 657.5,576.5 Z"/></g>
<g><path style="opacity:1" fill="#fefefe" d="M 657.5,576.5 C 663.5,576.5 669.5,576.5 675.5,576.5C 675.5,609.5 675.5,642.5 675.5,675.5C 669.5,675.5 663.5,675.5 657.5,675.5C 657.5,642.5 657.5,609.5 657.5,576.5 Z"/></g>
<g><path style="opacity:1" fill="#e5ebf4" d="M 681.5,626.5 C 687.833,626.5 694.167,626.5 700.5,626.5C 700.5,636.833 700.5,647.167 700.5,657.5C 699.506,647.681 699.173,637.681 699.5,627.5C 693.833,627.5 688.167,627.5 682.5,627.5C 682.5,652.5 682.5,677.5 682.5,702.5C 688.167,702.5 693.833,702.5 699.5,702.5C 699.174,693.651 699.507,684.984 700.5,676.5C 700.5,685.5 700.5,694.5 700.5,703.5C 694.167,703.5 687.833,703.5 681.5,703.5C 681.5,677.833 681.5,652.167 681.5,626.5 Z"/></g>
<g><path style="opacity:1" fill="#2e3d53" d="M 283.5,602.5 C 284.328,608.653 284.828,614.987 285,621.5C 284.871,615.084 285.705,609.084 287.5,603.5C 287.5,609.833 287.5,616.167 287.5,622.5C 305.833,622.5 324.167,622.5 342.5,622.5C 342.5,640.5 342.5,658.5 342.5,676.5C 341.883,676.389 341.383,676.056 341,675.5C 340.5,658.17 340.333,640.837 340.5,623.5C 329.828,623.333 319.161,623.5 308.5,624C 309.108,625.231 309.441,626.564 309.5,628C 308.885,644.323 308.218,660.49 307.5,676.5C 300.63,677.199 293.63,677.866 286.5,678.5C 285.667,661.51 285.167,644.51 285,627.5C 284.831,644.005 284.331,660.338 283.5,676.5C 283.83,659.658 283.497,642.992 282.5,626.5C 276.5,626.5 270.5,626.5 264.5,626.5C 270.653,625.672 276.987,625.172 283.5,625C 284.598,624.23 284.598,623.397 283.5,622.5C 283.5,615.833 283.5,609.167 283.5,602.5 Z"/></g>
<g><path style="opacity:1" fill="#b2bbc7" d="M 288.5,626.5 C 288.5,642.833 288.5,659.167 288.5,675.5C 294.5,675.5 300.5,675.5 306.5,675.5C 306.5,659.167 306.5,642.833 306.5,626.5C 307.497,642.992 307.83,659.658 307.5,676.5C 300.833,676.5 294.167,676.5 287.5,676.5C 287.17,659.658 287.503,642.992 288.5,626.5 Z"/></g>
<g><path style="opacity:1" fill="#fdfefe" d="M 288.5,626.5 C 294.5,626.5 300.5,626.5 306.5,626.5C 306.5,642.833 306.5,659.167 306.5,675.5C 300.5,675.5 294.5,675.5 288.5,675.5C 288.5,659.167 288.5,642.833 288.5,626.5 Z"/></g>
<g><path style="opacity:1" fill="#7b8149" d="M 149.5,629.5 C 149.5,629.833 149.5,630.167 149.5,630.5C 143.5,630.5 137.5,630.5 131.5,630.5C 131.171,645.676 131.504,660.676 132.5,675.5C 155.994,676.498 179.661,676.831 203.5,676.5C 179.672,677.498 155.672,677.831 131.5,677.5C 130.504,661.675 130.17,645.675 130.5,629.5C 136.833,629.5 143.167,629.5 149.5,629.5 Z"/></g>
<g><path style="opacity:1" fill="#adb6c1" d="M 264.5,626.5 C 264.5,642.833 264.5,659.167 264.5,675.5C 270.5,675.5 276.5,675.5 282.5,675.5C 282.5,659.167 282.5,642.833 282.5,626.5C 283.497,642.992 283.83,659.658 283.5,676.5C 276.833,676.5 270.167,676.5 263.5,676.5C 263.17,659.658 263.503,642.992 264.5,626.5 Z"/></g>
<g><path style="opacity:1" fill="#fdfefe" d="M 264.5,626.5 C 270.5,626.5 276.5,626.5 282.5,626.5C 282.5,642.833 282.5,659.167 282.5,675.5C 276.5,675.5 270.5,675.5 264.5,675.5C 264.5,659.167 264.5,642.833 264.5,626.5 Z"/></g>
<g><path style="opacity:1" fill="#747f8e" d="M 470.5,649.5 C 470.5,649.167 470.5,648.833 470.5,648.5C 470.5,642.5 470.5,636.5 470.5,630.5C 454.5,630.5 438.5,630.5 422.5,630.5C 421.504,645.658 421.17,660.991 421.5,676.5C 420.504,661.009 420.17,645.342 420.5,629.5C 437.5,629.5 454.5,629.5 471.5,629.5C 471.824,636.354 471.491,643.021 470.5,649.5 Z"/></g>
<g><path style="opacity:1" fill="#aab3bd" d="M 149.5,630.5 C 149.5,630.167 149.5,629.833 149.5,629.5C 159.833,629.5 170.167,629.5 180.5,629.5C 180.5,636.167 180.5,642.833 180.5,649.5C 170.5,649.5 160.5,649.5 150.5,649.5C 150.5,649.167 150.5,648.833 150.5,648.5C 160.167,648.5 169.833,648.5 179.5,648.5C 179.5,642.5 179.5,636.5 179.5,630.5C 169.833,630.5 160.167,630.5 150.5,630.5C 150.167,630.5 149.833,630.5 149.5,630.5 Z"/></g>
<g><path style="opacity:1" fill="#a6afba" d="M 1015.5,656.5 C 1015.5,656.833 1015.5,657.167 1015.5,657.5C 1014.52,654.713 1014.19,651.713 1014.5,648.5C 1024.5,648.5 1034.5,648.5 1044.5,648.5C 1044.5,642.5 1044.5,636.5 1044.5,630.5C 1028.5,630.5 1012.5,630.5 996.5,630.5C 996.5,645.5 996.5,660.5 996.5,675.5C 996.5,675.833 996.5,676.167 996.5,676.5C 995.504,661.009 995.17,645.342 995.5,629.5C 1012.17,629.5 1028.83,629.5 1045.5,629.5C 1045.5,636.167 1045.5,642.833 1045.5,649.5C 1035.5,649.5 1025.5,649.5 1015.5,649.5C 1015.5,651.833 1015.5,654.167 1015.5,656.5 Z"/></g>
<g><path style="opacity:1" fill="#1b2c45" d="M 892.5,622.5 C 892.5,624.833 892.5,627.167 892.5,629.5C 882.5,629.5 872.5,629.5 862.5,629.5C 862.5,636.167 862.5,642.833 862.5,649.5C 879.479,650.014 896.479,650.847 913.5,652C 896.925,653.637 880.258,653.97 863.5,653C 861.741,651.992 860.574,650.492 860,648.5C 859.333,650.833 859.333,653.167 860,655.5C 877.769,654.175 895.602,654.175 913.5,655.5C 913.376,656.107 913.043,656.44 912.5,656.5C 894.5,656.5 876.5,656.5 858.5,656.5C 858.5,645.167 858.5,633.833 858.5,622.5C 869.833,622.5 881.167,622.5 892.5,622.5 Z"/></g>
<g><path style="opacity:1" fill="#203149" d="M 916.5,576.5 C 916.5,609.833 916.5,643.167 916.5,676.5C 915.732,675.737 915.232,674.737 915,673.5C 914.667,668.833 914.333,664.167 914,659.5C 913.827,665.348 913.327,671.015 912.5,676.5C 912.5,670.167 912.5,663.833 912.5,657.5C 912.5,657.167 912.5,656.833 912.5,656.5C 913.043,656.44 913.376,656.107 913.5,655.5C 895.602,654.175 877.769,654.175 860,655.5C 859.333,653.167 859.333,650.833 860,648.5C 860.574,650.492 861.741,651.992 863.5,653C 880.258,653.97 896.925,653.637 913.5,652C 896.479,650.847 879.479,650.014 862.5,649.5C 879.167,649.5 895.833,649.5 912.5,649.5C 912.5,633.833 912.5,618.167 912.5,602.5C 887.833,602.5 863.167,602.5 838.5,602.5C 863.389,602.157 888.223,601.157 913,599.5C 914.044,601.715 914.71,604.048 915,606.5C 915.17,596.325 915.67,586.325 916.5,576.5 Z"/></g>
<g><path style="opacity:1" fill="#21313e" d="M 150.5,649.5 C 160.5,649.5 170.5,649.5 180.5,649.5C 171.348,650.494 162.015,650.827 152.5,650.5C 152.5,651.833 152.5,653.167 152.5,654.5C 163.167,654.5 173.833,654.5 184.5,654.5C 173.549,656.478 162.216,657.144 150.5,656.5C 150.5,654.167 150.5,651.833 150.5,649.5 Z"/></g>
<g><path style="opacity:1" fill="#828b99" d="M 475.5,622.5 C 476.495,633.988 476.828,645.655 476.5,657.5C 464.5,657.5 452.5,657.5 440.5,657.5C 440.5,654.5 440.5,651.5 440.5,648.5C 450.5,648.5 460.5,648.5 470.5,648.5C 470.5,648.833 470.5,649.167 470.5,649.5C 460.833,649.5 451.167,649.5 441.5,649.5C 441.5,651.833 441.5,654.167 441.5,656.5C 452.833,656.5 464.167,656.5 475.5,656.5C 475.5,645.167 475.5,633.833 475.5,622.5 Z"/></g>
<g><path style="opacity:1" fill="#6f7888" d="M 892.5,622.5 C 881.167,622.5 869.833,622.5 858.5,622.5C 858.5,633.833 858.5,645.167 858.5,656.5C 876.5,656.5 894.5,656.5 912.5,656.5C 912.5,656.833 912.5,657.167 912.5,657.5C 912.167,657.5 911.833,657.5 911.5,657.5C 893.5,657.5 875.5,657.5 857.5,657.5C 857.5,645.5 857.5,633.5 857.5,621.5C 869.345,621.172 881.012,621.505 892.5,622.5 Z"/></g>
<g><path style="opacity:1" fill="#6c7585" d="M 1049.5,622.5 C 1049.83,622.5 1050.17,622.5 1050.5,622.5C 1050.5,634.167 1050.5,645.833 1050.5,657.5C 1038.83,657.5 1027.17,657.5 1015.5,657.5C 1015.5,657.167 1015.5,656.833 1015.5,656.5C 1026.83,656.5 1038.17,656.5 1049.5,656.5C 1049.5,645.167 1049.5,633.833 1049.5,622.5 Z"/></g>
<g><path style="opacity:1" fill="#d3d05d" d="M 149.5,630.5 C 149.833,630.5 150.167,630.5 150.5,630.5C 150.5,636.5 150.5,642.5 150.5,648.5C 150.5,648.833 150.5,649.167 150.5,649.5C 150.5,651.833 150.5,654.167 150.5,656.5C 161.988,657.495 173.655,657.828 185.5,657.5C 191.5,657.5 197.5,657.5 203.5,657.5C 203.5,663.5 203.5,669.5 203.5,675.5C 179.833,675.5 156.167,675.5 132.5,675.5C 131.504,660.676 131.171,645.676 131.5,630.5C 137.5,630.5 143.5,630.5 149.5,630.5 Z"/></g>
<g><path style="opacity:1" fill="#dad13a" d="M 132.5,631.5 C 137.833,631.5 143.167,631.5 148.5,631.5C 148.183,640.418 148.516,649.251 149.5,658C 167.164,658.5 184.83,658.667 202.5,658.5C 202.5,663.833 202.5,669.167 202.5,674.5C 179.167,674.5 155.833,674.5 132.5,674.5C 132.5,660.167 132.5,645.833 132.5,631.5 Z"/></g>
<g><path style="opacity:1" fill="#b2b467" d="M 185.5,657.5 C 185.5,657.167 185.5,656.833 185.5,656.5C 191.833,656.5 198.167,656.5 204.5,656.5C 204.5,657.167 204.833,657.5 205.5,657.5C 205.5,663.833 205.5,670.167 205.5,676.5C 204.833,676.5 204.167,676.5 203.5,676.5C 179.661,676.831 155.994,676.498 132.5,675.5C 156.167,675.5 179.833,675.5 203.5,675.5C 203.5,669.5 203.5,663.5 203.5,657.5C 197.5,657.5 191.5,657.5 185.5,657.5 Z"/></g>
<g><path style="opacity:1" fill="#d8dfea" d="M 422.5,630.5 C 422.5,645.5 422.5,660.5 422.5,675.5C 446.5,675.5 470.5,675.5 494.5,675.5C 494.5,675.833 494.5,676.167 494.5,676.5C 470.167,676.5 445.833,676.5 421.5,676.5C 421.17,660.991 421.504,645.658 422.5,630.5 Z"/></g>
<g><path style="opacity:1" fill="#c8d0dc" d="M 578.5,603.5 C 602.994,602.502 627.661,602.169 652.5,602.5C 652.5,627.167 652.5,651.833 652.5,676.5C 627.833,676.5 603.167,676.5 578.5,676.5C 578.5,661.167 578.5,645.833 578.5,630.5C 578.833,630.5 579.167,630.5 579.5,630.5C 579.5,645.5 579.5,660.5 579.5,675.5C 603.5,675.5 627.5,675.5 651.5,675.5C 651.5,651.5 651.5,627.5 651.5,603.5C 627.167,603.5 602.833,603.5 578.5,603.5 Z"/></g>
<g><path style="opacity:1" fill="#c5cdd9" d="M 754.5,657.5 C 755.833,663.833 755.833,670.167 754.5,676.5C 736.5,676.5 718.5,676.5 700.5,676.5C 718.326,675.503 736.326,675.17 754.5,675.5C 754.5,669.5 754.5,663.5 754.5,657.5 Z"/></g>
<g><path style="opacity:1" fill="#d0d9e4" d="M 911.5,657.5 C 911.833,657.5 912.167,657.5 912.5,657.5C 912.5,663.833 912.5,670.167 912.5,676.5C 887.833,676.5 863.167,676.5 838.5,676.5C 838.5,676.167 838.5,675.833 838.5,675.5C 862.833,675.5 887.167,675.5 911.5,675.5C 911.5,669.5 911.5,663.5 911.5,657.5 Z"/></g>
<g><path style="opacity:1" fill="#d7dee9" d="M 1068.5,603.5 C 1068.83,603.5 1069.17,603.5 1069.5,603.5C 1069.5,627.833 1069.5,652.167 1069.5,676.5C 1045.17,676.5 1020.83,676.5 996.5,676.5C 996.5,676.167 996.5,675.833 996.5,675.5C 1020.5,675.5 1044.5,675.5 1068.5,675.5C 1068.5,651.5 1068.5,627.5 1068.5,603.5 Z"/></g>
<g><path style="opacity:1" fill="#546072" d="M 681.5,626.5 C 681.5,652.167 681.5,677.833 681.5,703.5C 687.833,703.5 694.167,703.5 700.5,703.5C 700.5,694.5 700.5,685.5 700.5,676.5C 718.5,676.5 736.5,676.5 754.5,676.5C 737.008,677.497 719.341,677.83 701.5,677.5C 701.5,686.5 701.5,695.5 701.5,704.5C 694.5,704.5 687.5,704.5 680.5,704.5C 680.169,678.328 680.502,652.328 681.5,626.5 Z"/></g>
<g><path style="opacity:1" fill="#656f7f" d="M 779.5,622.5 C 779.5,640.833 779.5,659.167 779.5,677.5C 772.646,677.824 765.979,677.491 759.5,676.5C 759.833,676.5 760.167,676.5 760.5,676.5C 766.5,676.5 772.5,676.5 778.5,676.5C 778.17,658.326 778.503,640.326 779.5,622.5 Z"/></g>
<g><path style="opacity:1" fill="#1c2b2d" d="M 203.5,676.5 C 204.167,676.5 204.833,676.5 205.5,676.5C 193.519,677.832 181.185,678.499 168.5,678.5C 155.995,678.5 143.662,678.167 131.5,677.5C 155.672,677.831 179.672,677.498 203.5,676.5 Z"/></g>
</svg>
